<svg width="140" height="140" viewBox="0 0 140 140" fill="none" xmlns="http://www.w3.org/2000/svg">
<rect width="140" height="140" rx="15" fill="url(#paint0_linear_0_1)"/>
<rect width="140" height="140" rx="15" fill="url(#paint1_linear_0_1)"/>
<path d="M44.9 23.95C45.6333 23.95 46.2167 24.2 46.65 24.7C47.0833 25.1667 47.3 25.7667 47.3 26.5V45.45C47.3 48.1167 46.7167 50.5 45.55 52.6C44.3833 54.7 42.7833 56.35 40.75 57.55C38.7167 58.7167 36.3667 59.3 33.7 59.3C31.0667 59.3 28.7167 58.7167 26.65 57.55C24.6167 56.35 23 54.7 21.8 52.6C20.6333 50.5 20.05 48.1167 20.05 45.45V26.5C20.05 25.7667 20.3 25.1667 20.8 24.7C21.3 24.2 21.95 23.95 22.75 23.95C23.3833 23.95 23.95 24.2 24.45 24.7C24.9833 25.1667 25.25 25.7667 25.25 26.5V45.45C25.25 47.2167 25.6333 48.7667 26.4 50.1C27.2 51.4 28.25 52.4333 29.55 53.2C30.85 53.9333 32.2333 54.3 33.7 54.3C35.3 54.3 36.7667 53.9333 38.1 53.2C39.4333 52.4333 40.5 51.4 41.3 50.1C42.1333 48.7667 42.55 47.2167 42.55 45.45V26.5C42.55 25.7667 42.75 25.1667 43.15 24.7C43.5833 24.2 44.1667 23.95 44.9 23.95ZM60.7004 56.45C60.6671 57.1833 60.3837 57.8 59.8504 58.3C59.3504 58.7667 58.7504 59 58.0504 59C57.2837 59 56.6504 58.7667 56.1504 58.3C55.6837 57.8 55.4504 57.1833 55.4504 56.45V26.55C55.4504 25.8167 55.7004 25.2167 56.2004 24.75C56.7004 24.25 57.3504 24 58.1504 24C58.8171 24 59.4004 24.25 59.9004 24.75C60.4337 25.2167 60.7004 25.8167 60.7004 26.55V56.45Z" fill="white"/>
<path d="M63.1504 101.646V81.333C63.1504 80.4378 63.5573 79.9902 64.3711 79.9902H66.6172C67.431 79.9902 67.8379 80.4378 67.8379 81.333V100.913C67.8379 105.47 68.4808 108.449 69.7666 109.849C71.0687 111.232 73.1846 111.924 76.1143 111.924C79.0439 111.924 81.1517 111.232 82.4375 109.849C83.7396 108.449 84.3906 105.47 84.3906 100.913V81.333C84.3906 80.4378 84.7975 79.9902 85.6113 79.9902H87.8574C88.6712 79.9902 89.0781 80.4378 89.0781 81.333V101.646C89.0781 106.805 87.89 110.443 85.5137 112.559C83.1536 114.674 80.0205 115.732 76.1143 115.732C72.208 115.732 69.0667 114.674 66.6904 112.559C64.3304 110.443 63.1504 106.805 63.1504 101.646ZM96.2559 115C95.1979 115 95.0514 114.463 95.8164 113.389L107.535 96.9336L96.6465 81.6016C95.8815 80.5273 96.028 79.9902 97.0859 79.9902H100.089C100.805 79.9902 101.375 80.3076 101.798 80.9424L110.367 93.6865L118.937 80.9424C119.36 80.3076 119.929 79.9902 120.646 79.9902H123.648C124.706 79.9902 124.853 80.5273 124.088 81.6016L113.199 96.9336L124.918 113.389C125.683 114.463 125.536 115 124.479 115H121.451C120.735 115 120.165 114.683 119.742 114.048L110.367 100.181L100.992 114.048C100.569 114.683 99.9993 115 99.2832 115H96.2559Z" fill="white"/>
<path d="M131 70L8 70" stroke="black"/>
<defs>
<linearGradient id="paint0_linear_0_1" x1="7" y1="5" x2="140" y2="140" gradientUnits="userSpaceOnUse">
<stop offset="0.10179" stop-color="#FF5C00"/>
<stop offset="0.690342" stop-color="white"/>
</linearGradient>
<linearGradient id="paint1_linear_0_1" x1="135.5" y1="132" x2="7.50002" y2="3.50001" gradientUnits="userSpaceOnUse">
<stop offset="0.153874" stop-color="#840086"/>
<stop offset="0.56534" stop-color="#A700AB" stop-opacity="0"/>
</linearGradient>
</defs>
</svg>
